HIERARCHY
ROOT hip
{
  OFFSET 0 0 0
  CHANNELS 6 Xposition Yposition Zposition Zrotation Yrotation Xrotation
  JOINT abdomen
  {
    OFFSET 0 20.6881 -0.73152
    CHANNELS 3 Zrotation Xrotation Yrotation
    JOINT chest
    {
      OFFSET 0 11.7043 -0.48768
      CHANNELS 3 Zrotation Xrotation Yrotation
      JOINT neck
      {
        OFFSET 0 22.1894 -2.19456
        CHANNELS 3 Zrotation Xrotation Yrotation
        JOINT head
        {
          OFFSET -0.24384 7.07133 1.2192
          CHANNELS 3 Zrotation Xrotation Yrotation
          JOINT leftEye
          {
            OFFSET 4.14528 8.04674 8.04672
            CHANNELS 3 Zrotation Xrotation Yrotation
            End Site
            {
              OFFSET 1 0 0
            }
          }
          JOINT rightEye
          {
            OFFSET -3.6576 8.04674 8.04672
            CHANNELS 3 Zrotation Xrotation Yrotation
            End Site
            {
              OFFSET 1 0 0
            }
          }
        }
      }
      JOINT rCollar
      {
        OFFSET -2.68224 19.2634 -4.8768
        CHANNELS 3 Zrotation Xrotation Yrotation
        JOINT rShldr
        {
          OFFSET -8.77824 -1.95073 1.46304
          CHANNELS 3 Zrotation Xrotation Yrotation
          JOINT rForeArm
          {
            OFFSET -28.1742 -1.7115 0.48768
            CHANNELS 3 Zrotation Xrotation Yrotation
            JOINT rHand
            {
              OFFSET -22.5879 0.773209 7.07136
              CHANNELS 3 Zrotation Xrotation Yrotation
              JOINT rThumb1
              {
                OFFSET -1.2192 -0.487915 3.41376
                CHANNELS 3 Zrotation Xrotation Yrotation
                JOINT rThumb2
                {
                  OFFSET -3.37035 -0.52449 3.41376
                  CHANNELS 3 Zrotation Xrotation Yrotation
                  End Site
                  {
                    OFFSET -1.78271 -1.18214 1.43049
                  }
                }
              }
              JOINT rIndex1
              {
                OFFSET -7.75947 0.938293 5.60832
                CHANNELS 3 Zrotation Xrotation Yrotation
                JOINT rIndex2
                {
                  OFFSET -2.54057 -0.884171 1.56538
                  CHANNELS 3 Zrotation Xrotation Yrotation
                  End Site
                  {
                    OFFSET -1.62519 -0.234802 1.16502
                  }
                }
              }
              JOINT rMid1
              {
                OFFSET -8.24714 1.18213 3.41376
                CHANNELS 3 Zrotation Xrotation Yrotation
                JOINT rMid2
                {
                  OFFSET -3.10165 -0.590103 1.0647
                  CHANNELS 3 Zrotation Xrotation Yrotation
                  End Site
                  {
                    OFFSET -2.48547 -0.328903 0.83742
                  }
                }
              }
              JOINT rRing1
              {
                OFFSET -8.82822 0.546677 1.51678
                CHANNELS 3 Zrotation Xrotation Yrotation
                JOINT rRing2
                {
                  OFFSET -2.60934 -0.819778 -0.0198488
                  CHANNELS 3 Zrotation Xrotation Yrotation
                  End Site
                  {
                    OFFSET -2.33842 -0.294052 0.168128
                  }
                }
              }
              JOINT rPinky1
              {
                OFFSET -8.27202 -0.0477905 -0.4584
                CHANNELS 3 Zrotation Xrotation Yrotation
                JOINT rPinky2
                {
                  OFFSET -1.82734 -0.647385 -0.700984
                  CHANNELS 3 Zrotation Xrotation Yrotation
                  End Site
                  {
                    OFFSET -1.69225 -0.51767 -0.607171
                  }
                }
              }
            }
          }
        }
      }
      JOINT lCollar
      {
        OFFSET 2.68224 19.2634 -4.8768
        CHANNELS 3 Zrotation Xrotation Yrotation
        JOINT lShldr
        {
          OFFSET 8.77824 -1.95073 1.46304
          CHANNELS 3 Zrotation Xrotation Yrotation
          JOINT lForeArm
          {
            OFFSET 28.1742 -1.7115 0.48768
            CHANNELS 3 Zrotation Xrotation Yrotation
            JOINT lHand
            {
              OFFSET 22.5879 0.773209 7.07136
              CHANNELS 3 Zrotation Xrotation Yrotation
              JOINT lThumb1
              {
                OFFSET 1.2192 -0.487915 3.41376
                CHANNELS 3 Zrotation Xrotation Yrotation
                JOINT lThumb2
                {
                  OFFSET 3.37035 -0.52449 3.41376
                  CHANNELS 3 Zrotation Xrotation Yrotation
                  End Site
                  {
                    OFFSET 1.78271 -1.18214 1.43049
                  }
                }
              }
              JOINT lIndex1
              {
                OFFSET 7.75947 0.938293 5.60832
                CHANNELS 3 Zrotation Xrotation Yrotation
                JOINT lIndex2
                {
                  OFFSET 2.54057 -0.884171 1.56538
                  CHANNELS 3 Zrotation Xrotation Yrotation
                  End Site
                  {
                    OFFSET 1.62519 -0.234802 1.16502
                  }
                }
              }
              JOINT lMid1
              {
                OFFSET 8.24714 1.18213 3.41376
                CHANNELS 3 Zrotation Xrotation Yrotation
                JOINT lMid2
                {
                  OFFSET 3.10165 -0.590103 1.0647
                  CHANNELS 3 Zrotation Xrotation Yrotation
                  End Site
                  {
                    OFFSET 2.48547 -0.328903 0.83742
                  }
                }
              }
              JOINT lRing1
              {
                OFFSET 8.82822 0.546677 1.51678
                CHANNELS 3 Zrotation Xrotation Yrotation
                JOINT lRing2
                {
                  OFFSET 2.60934 -0.819778 -0.0198488
                  CHANNELS 3 Zrotation Xrotation Yrotation
                  End Site
                  {
                    OFFSET 2.33842 -0.294052 0.168128
                  }
                }
              }
              JOINT lPinky1
              {
                OFFSET 8.27202 -0.0477905 -0.4584
                CHANNELS 3 Zrotation Xrotation Yrotation
                JOINT lPinky2
                {
                  OFFSET 1.82734 -0.647385 -0.700984
                  CHANNELS 3 Zrotation Xrotation Yrotation
                  End Site
                  {
                    OFFSET 1.69225 -0.51767 -0.607171
                  }
                }
              }
            }
          }
        }
      }
    }
  }
  JOINT rButtock
  {
    OFFSET -8.77824 4.35084 1.2192
    CHANNELS 3 Zrotation Xrotation Yrotation
    JOINT rThigh
    {
      OFFSET 0 -1.70687 -2.19456
      CHANNELS 3 Zrotation Xrotation Yrotation
      JOINT rShin
      {
        OFFSET 0 -36.8199 0.73152
        CHANNELS 3 Zrotation Xrotation Yrotation
        JOINT rFoot
        {
          OFFSET 0.73152 -45.1104 -5.12064
          CHANNELS 3 Zrotation Xrotation Yrotation
          End Site
          {
            OFFSET -1.1221 -3.69964 12.103
          }
        }
      }
    }
  }
  JOINT lButtock
  {
    OFFSET 8.77824 4.35084 1.2192
    CHANNELS 3 Zrotation Xrotation Yrotation
    JOINT lThigh
    {
      OFFSET 0 -1.70687 -2.19456
      CHANNELS 3 Zrotation Xrotation Yrotation
      JOINT lShin
      {
        OFFSET 0 -36.8199 0.73152
        CHANNELS 3 Zrotation Xrotation Yrotation
        JOINT lFoot
        {
          OFFSET -0.73152 -45.1104 -5.12064
          CHANNELS 3 Zrotation Xrotation Yrotation
          End Site
          {
            OFFSET 1.1221 -3.69964 12.103
          }
        }
      }
    }
  }
}
MOTION
Frames:	4
Frame Time:	0.03333
1.6116999089717865 69.36119794845581 -0.2630000002682209 -534.5700009763306 51.61599910497482 -178.4850007491558 -3.0932900088178132 17.704099630577755 1.595760040956822 5.216880131922345 -10.272099931474242 0.9137769648318617 -7.013829904905945 19.178599161052816 -12.146099787824287 10.923500195260237 -26.36320001690836 -21.461799919446555 -0.0 0.0 0.0 -0.0 0.0 0.0 9.629630263641347e-14 1.8671500224462815e-13 -8.88863020438956e-14 -1.7249199853788209 10.204699624744556 78.82250038058984 -27.425400300777476 -42.73449922153214 88.99909975331533 -0.24106699108310434 -14.111099962033705 -2.0204999435274136 -4.572449893555678e-10 -9.692639757022099e-11 1.1194500162417516e-10 -7.881140177825319e-10 -1.6710700143830458e-10 1.8896799738350817e-10 -4.5724598327890577e-10 -9.691270006421977e-11 1.1193900081202225e-10 7.730910121524428 5.474879855648998 0.41731399283890674 -4.572490147450865e-10 -9.691760134868007e-11 1.1194399527679548e-10 2.90554006136521 0.9651829962377875 0.10290200252939893 -4.57240019738878e-10 -9.69134020225772e-11 1.1194599554751313e-10 10.278599710243157 0.7318009818271524 0.025912300303053633 -4.5724598327890577e-10 -9.690769938742567e-11 1.1195599690110132e-10 2.221669932038622 -0.7334870246959406 -0.20891999872313852 9.617309957812138e-14 1.8671799905938005e-13 -8.904859715534807e-14 27.716800076432317 29.44740096493159 -124.89399780415845 24.176100020136698 -19.41730061216642 -50.294101368483474 0.9877430043446338 -27.054099264664536 4.114669880555762 -4.906430001422783e-10 -8.953209744306226e-10 3.868440078353756e-10 -8.54344000014986e-10 -1.5398099887159698e-09 6.559409989852918e-10 -4.906439940656162e-10 -8.95331013056336e-10 3.868450017587136e-10 -7.730910121524428 5.474879855648998 -0.41731399283890674 -4.906430001422783e-10 -8.953280312863221e-10 3.868400072939404e-10 -2.90554006136521 0.9651829962377875 -0.10290200252939893 -4.906469758356301e-10 -8.9532902520966e-10 3.868400072939404e-10 -10.278599710243157 0.7318009818271524 -0.025912300303053633 -4.906349990594077e-10 -8.953239562006364e-10 3.868320062110698e-10 -2.221669932038622 -0.7334870246959406 0.20891999872313852 -2.0321699793705798e-16 0.0 -3.882510030490358e-19 -41.65559912514234 -54.500900255658955 -40.76369936294373 -1.8539199539638536 68.42139952003522 2.2528000132848365 0.27006301173965963 3.8475002009815427 10.754799645402798 2.0321699793705798e-16 0.0 3.882510030490358e-19 9.959769894881546 -39.77080159348815 23.90819951032129 2.280030056514973 73.3853965936929 -3.684910109110328 10.802200304469041 -23.037099381692663 19.380400515175428
3.2905999571084976 69.87670063972473 -0.506000011228025 -533.7120199335502 48.772198617621235 -178.18799680328698 -2.6410800459007824 17.279299430243398 -0.07419030183725864 6.356530065224353 -10.280500210379712 0.5653009801820755 -7.780709884536637 19.031000480636134 -12.202300291862445 11.299600293038758 -25.34749966090869 -21.53950015144462 -0.0 0.0 0.0 -0.0 0.0 0.0 6.947200185140187e-14 3.146800113103356e-13 1.7469199985137275e-13 1.2796999740253578 14.25749994425105 74.2578029960003 -26.913600565890082 -44.32640116610325 91.98859842094905 -0.1075270010928496 -8.654290225607621 -1.2263799955479475 4.2758800662059507e-10 4.370439944732537e-10 1.5321800368198064e-10 7.35825003072935e-10 7.467080163580659e-10 2.635519922397859e-10 4.2758497515441427e-10 4.3705900271565683e-10 1.5321000259911008e-10 7.730910121524428 5.474879855648998 0.41731399283890674 4.275839812310763e-10 4.3705602094564295e-10 1.532200039526983e-10 2.90554006136521 0.9651829962377875 0.10290200252939893 4.275909883906089e-10 4.3705800879231885e-10 1.5321699733460098e-10 10.278599710243157 0.7318009818271524 0.025912300303053633 4.2758800662059507e-10 4.370619844856707e-10 1.5322699868818915e-10 2.221669932038622 -0.7334870246959406 -0.20891999872313852 6.92582027779178e-14 3.146879947277718e-13 1.7453000199482482e-13 26.783400084836714 32.006300601625604 -124.41099414681182 24.574199303458183 -20.223800811625065 -51.481399982095965 0.8275410240836906 -24.847999389169193 3.7341199145329775 1.3990600327142441e-10 -9.278650062853601e-10 1.1635700495809273e-09 2.1735398822602626e-10 -1.6267499539721062e-09 2.0118700017777948e-09 1.3990400300070677e-10 -9.278709698253879e-10 1.1635700495809273e-09 -7.730910121524428 5.474879855648998 -0.41731399283890674 1.3990499692404472e-10 -9.278729576720637e-10 1.163560010955214e-09 -2.90554006136521 0.9651829962377875 -0.10290200252939893 1.399000024592715e-10 -9.278729576720637e-10 1.163560010955214e-09 -10.278599710243157 0.7318009818271524 -0.025912300303053633 1.3991400435429497e-10 -9.278699759020499e-10 1.163560010955214e-09 -2.221669932038622 -0.7334870246959406 0.20891999872313852 -2.0321699793705798e-16 0.0 -3.882510030490358e-19 -40.17959866059717 -52.70930065522959 -37.807299792027905 -1.1498000212954702 61.00390287386058 1.5137300026334979 -0.6594580193767574 8.163269633722697 9.480989855762932 2.0321699793705798e-16 0.0 3.882510030490358e-19 10.15760034777544 -38.1771989318137 22.633300305508804 2.1327799291893723 72.62540144474558 -3.5501600817394965 11.484600235576783 -23.022400814598797 20.484700377541213
4.86919991672039 70.44559717178345 -0.8300000103190541 -533.444003310519 47.08090034515351 -178.4540053507023 -2.513180057937239 16.644399195944864 -1.2186500356764913 7.4440396150629535 -10.144799719497192 0.3363180078033254 -8.475159976887575 18.749900630249673 -12.321599791000473 11.464000385040025 -24.321600124930896 -21.78120005560386 -0.0 0.0 0.0 -0.0 0.0 0.0 7.055499853146877e-14 4.286240039758523e-13 2.387300000549762e-13 5.18512999756554 18.618600488739933 68.3617992893377 -26.083599393044718 -46.18930111127838 95.82090145102731 -0.04908279992266283 -3.8764999035369474 -0.5418920009057379 8.207610200950817e-10 -9.810309595560367e-10 -1.4191400422782453e-09 1.4214399808822786e-09 -1.7089499982218576e-09 -2.4598499359539255e-09 8.207610200950817e-10 -9.810259899393468e-10 -1.419149981511625e-09 7.730910121524428 5.474879855648998 0.41731399283890674 8.207610200950817e-10 -9.81021020322657e-10 -1.419130003652532e-09 2.90554006136521 0.9651829962377875 0.10290200252939893 8.207630079417576e-10 -9.810279777860227e-10 -1.4191400422782453e-09 10.278599710243157 0.7318009818271524 0.025912300303053633 8.207630079417576e-10 -9.810269838626847e-10 -1.419130003652532e-09 2.221669932038622 -0.7334870246959406 -0.20891999872313852 7.035040222717219e-14 4.286229848161796e-13 2.3850398926469944e-13 25.784899852714428 35.866201011045305 -123.02199321681968 25.44259979981736 -22.101800597507797 -54.80920133441499 0.7186929950362517 -23.150099738868647 3.4512100640164642 -2.339059923576976e-10 -1.8503099498241712e-09 1.9898200113098785e-09 -4.418090120439219e-10 -3.2215399054428583e-09 3.4324399021700254e-09 -2.339089989757949e-10 -1.8503000105907916e-09 1.9898299505432582e-09 -7.730910121524428 5.474879855648998 -0.41731399283890674 -2.339049984343596e-10 -1.8503099498241712e-09 1.9898200113098785e-09 -2.90554006136521 0.9651829962377875 -0.10290200252939893 -2.3391101167055424e-10 -1.8503099498241712e-09 1.9898200113098785e-09 -10.278599710243157 0.7318009818271524 -0.025912300303053633 -2.339019918162623e-10 -1.8503099498241712e-09 1.9898200113098785e-09 -2.221669932038622 -0.7334870246959406 0.20891999872313852 -2.0321699793705798e-16 0.0 -3.882510030490358e-19 -38.285498411293425 -50.7914996495059 -33.94879957138806 -0.7687489968640422 53.79450160112873 1.0588300124005399 -1.180959984619303 11.469700177902402 8.181339752945613 2.0321699793705798e-16 0.0 3.882510030490358e-19 10.66429963890013 -36.644699142454186 22.010699534358167 1.9959099818548982 71.7472986646704 -3.3846599023950334 12.063000291287327 -22.973100509169644 21.380399432465637
6.422999873757362 70.8400011062622 -1.2080000014975667 -533.6990152533705 45.44179837832302 -178.8710020599099 -2.8653900749897594 15.939499767937452 -1.8079999518436232 8.00736971214351 -9.822099748197124 0.181500004196924 -8.9759400553228 18.523599387574226 -12.555100053061114 11.67990010338319 -23.56100050424203 -22.225500446018607 -0.0 0.0 0.0 -0.0 0.0 0.0 2.138990026966269e-14 3.7001300476372403e-13 2.7537099846819776e-13 11.435599604697465 22.526300269518675 61.025001328206756 -25.270999834657253 -47.523100452398474 98.95319888363848 0.01629190048333799 3.7664600064793414 0.528013003151419 1.5999399652463783e-09 -3.8082398811395213e-10 -1.3294900456488347e-09 2.772719907261486e-09 -6.924770245346012e-10 -2.3207100115192733e-09 1.5999399652463783e-09 -3.8082398811395213e-10 -1.3294999848822143e-09 7.730910121524428 5.474879855648998 0.41731399283890674 1.5999399652463783e-09 -3.8081799972584093e-10 -1.3294800070231212e-09 2.90554006136521 0.9651829962377875 0.10290200252939893 1.5999399652463783e-09 -3.8082600080871146e-10 -1.3294900456488347e-09 10.278599710243157 0.7318009818271524 0.025912300303053633 1.5999399652463783e-09 -3.8082600080871146e-10 -1.3294800070231212e-09 2.221669932038622 -0.7334870246959406 -0.20891999872313852 2.118750001180375e-14 3.7000800602818647e-13 2.751159901586618e-13 25.672999155994816 40.414198583114185 -121.43300434792958 26.629200026587213 -25.15840075109501 -59.21409961318293 0.8549649806532322 -25.042700761649577 3.783039863802724 6.292729922083913e-10 -2.015239998247473e-09 2.1932300005468668e-09 1.0421999835439458e-09 -3.5259299216156344e-09 3.808870078231953e-09 6.292690165150395e-10 -2.0152300590140935e-09 2.193239939780246e-09 -7.730910121524428 5.474879855648998 -0.41731399283890674 6.292749800550672e-10 -2.015239998247473e-09 2.193239939780246e-09 -2.90554006136521 0.9651829962377875 -0.10290200252939893 6.292680225917015e-10 -2.015239998247473e-09 2.193239939780246e-09 -10.278599710243157 0.7318009818271524 -0.025912300303053633 6.292760236745721e-10 -2.015239998247473e-09 2.193239939780246e-09 -2.221669932038622 -0.7334870246959406 0.20891999872313852 -2.0321699793705798e-16 0.0 -3.882510030490358e-19 -37.43410167087299 -48.88200073871836 -31.360499385411725 -0.5723940249134281 48.0763013789399 0.7698889981251996 -1.2951099480099644 14.506799287635577 5.717880057071481 2.0321699793705798e-16 0.0 3.882510030490358e-19 11.140100007993327 -35.201698736883934 21.9645001348122 1.8998100740064652 71.07970231481501 -3.270820072281373 12.581199913427024 -23.054000684793863 22.11199977748592
